<?xml version="1.0" encoding="UTF-8"?>
<!--Generator: Apple Native CoreSVG 175.5-->
<!DOCTYPE svg
PUBLIC "-//W3C//DTD SVG 1.1//EN"
       "http://www.w3.org/Graphics/SVG/1.1/DTD/svg11.dtd">
<svg version="1.1" xmlns="http://www.w3.org/2000/svg" xmlns:xlink="http://www.w3.org/1999/xlink" width="3300" height="2200">
 <!--glyph: "uni10032A.medium", point size: 100.0, font version: "18.0d11e1", template writer version: "90"-->
 <g id="Notes">
  <rect height="2200" id="artboard" style="fill:white;opacity:1" width="3300" x="0" y="0"/>
  <line style="fill:none;stroke:black;opacity:1;stroke-width:0.5;" x1="263" x2="3036" y1="292" y2="292"/>
  <text style="stroke:none;fill:black;font-family:sans-serif;font-size:13;font-weight:bold;" transform="matrix(1 0 0 1 263 322)">Weight/Scale Variations</text>
  <text style="stroke:none;fill:black;font-family:sans-serif;font-size:13;text-anchor:middle;" transform="matrix(1 0 0 1 559.711 322)">Ultralight</text>
  <text style="stroke:none;fill:black;font-family:sans-serif;font-size:13;text-anchor:middle;" transform="matrix(1 0 0 1 856.422 322)">Thin</text>
  <text style="stroke:none;fill:black;font-family:sans-serif;font-size:13;text-anchor:middle;" transform="matrix(1 0 0 1 1153.13 322)">Light</text>
  <text style="stroke:none;fill:black;font-family:sans-serif;font-size:13;text-anchor:middle;" transform="matrix(1 0 0 1 1449.84 322)">Regular</text>
  <text style="stroke:none;fill:black;font-family:sans-serif;font-size:13;text-anchor:middle;" transform="matrix(1 0 0 1 1746.56 322)">Medium</text>
  <text style="stroke:none;fill:black;font-family:sans-serif;font-size:13;text-anchor:middle;" transform="matrix(1 0 0 1 2043.27 322)">Semibold</text>
  <text style="stroke:none;fill:black;font-family:sans-serif;font-size:13;text-anchor:middle;" transform="matrix(1 0 0 1 2339.98 322)">Bold</text>
  <text style="stroke:none;fill:black;font-family:sans-serif;font-size:13;text-anchor:middle;" transform="matrix(1 0 0 1 2636.69 322)">Heavy</text>
  <text style="stroke:none;fill:black;font-family:sans-serif;font-size:13;text-anchor:middle;" transform="matrix(1 0 0 1 2933.4 322)">Black</text>
  <line style="fill:none;stroke:black;opacity:1;stroke-width:0.5;" x1="263" x2="3036" y1="1903" y2="1903"/>
  <g transform="matrix(1 0 0 1 263 1933)">
   <path d="M9.24805 0.830078C13.5547 0.830078 17.1387-2.74414 17.1387-7.05078C17.1387-11.3574 13.5449-14.9316 9.23828-14.9316C4.94141-14.9316 1.36719-11.3574 1.36719-7.05078C1.36719-2.74414 4.95117 0.830078 9.24805 0.830078ZM9.24805-0.654297C5.70312-0.654297 2.87109-3.49609 2.87109-7.05078C2.87109-10.6055 5.69336-13.4473 9.23828-13.4473C12.793-13.4473 15.6445-10.6055 15.6445-7.05078C15.6445-3.49609 12.8027-0.654297 9.24805-0.654297ZM5.6543-7.05078C5.6543-6.62109 5.95703-6.32812 6.40625-6.32812L8.50586-6.32812L8.50586-4.20898C8.50586-3.76953 8.79883-3.4668 9.22852-3.4668C9.67773-3.4668 9.9707-3.76953 9.9707-4.20898L9.9707-6.32812L12.0898-6.32812C12.5293-6.32812 12.832-6.62109 12.832-7.05078C12.832-7.49023 12.5293-7.79297 12.0898-7.79297L9.9707-7.79297L9.9707-9.90234C9.9707-10.3516 9.67773-10.6543 9.22852-10.6543C8.79883-10.6543 8.50586-10.3516 8.50586-9.90234L8.50586-7.79297L6.40625-7.79297C5.95703-7.79297 5.6543-7.49023 5.6543-7.05078Z"/>
  </g>
  <g transform="matrix(1 0 0 1 281.867 1933)">
   <path d="M11.709 2.91016C17.1582 2.91016 21.6699-1.61133 21.6699-7.05078C21.6699-12.5 17.1484-17.0117 11.6992-17.0117C6.25977-17.0117 1.74805-12.5 1.74805-7.05078C1.74805-1.61133 6.26953 2.91016 11.709 2.91016ZM11.709 1.25C7.09961 1.25 3.41797-2.44141 3.41797-7.05078C3.41797-11.6602 7.08984-15.3516 11.6992-15.3516C16.3086-15.3516 20.0098-11.6602 20.0098-7.05078C20.0098-2.44141 16.3184 1.25 11.709 1.25ZM7.17773-7.05078C7.17773-6.57227 7.50977-6.25 8.00781-6.25L10.8789-6.25L10.8789-3.36914C10.8789-2.88086 11.2109-2.53906 11.6895-2.53906C12.1777-2.53906 12.5195-2.87109 12.5195-3.36914L12.5195-6.25L15.4004-6.25C15.8887-6.25 16.2305-6.57227 16.2305-7.05078C16.2305-7.53906 15.8887-7.88086 15.4004-7.88086L12.5195-7.88086L12.5195-10.752C12.5195-11.25 12.1777-11.5918 11.6895-11.5918C11.2109-11.5918 10.8789-11.25 10.8789-10.752L10.8789-7.88086L8.00781-7.88086C7.50977-7.88086 7.17773-7.53906 7.17773-7.05078Z"/>
  </g>
  <g transform="matrix(1 0 0 1 305.646 1933)">
   <path d="M14.9707 5.66406C21.9336 5.66406 27.6953-0.0976562 27.6953-7.05078C27.6953-14.0137 21.9238-19.7754 14.9609-19.7754C8.00781-19.7754 2.25586-14.0137 2.25586-7.05078C2.25586-0.0976562 8.01758 5.66406 14.9707 5.66406ZM14.9707 3.84766C8.93555 3.84766 4.08203-1.01562 4.08203-7.05078C4.08203-13.0957 8.92578-17.9492 14.9609-17.9492C21.0059-17.9492 25.8691-13.0957 25.8691-7.05078C25.8691-1.01562 21.0156 3.84766 14.9707 3.84766ZM9.19922-7.05078C9.19922-6.5332 9.57031-6.17188 10.1172-6.17188L14.0625-6.17188L14.0625-2.2168C14.0625-1.67969 14.4336-1.29883 14.9512-1.29883C15.4883-1.29883 15.8594-1.66992 15.8594-2.2168L15.8594-6.17188L19.8145-6.17188C20.3516-6.17188 20.7324-6.5332 20.7324-7.05078C20.7324-7.59766 20.3613-7.96875 19.8145-7.96875L15.8594-7.96875L15.8594-11.9141C15.8594-12.4609 15.4883-12.8418 14.9512-12.8418C14.4336-12.8418 14.0625-12.4609 14.0625-11.9141L14.0625-7.96875L10.1172-7.96875C9.57031-7.96875 9.19922-7.59766 9.19922-7.05078Z"/>
  </g>
  <text style="stroke:none;fill:black;font-family:sans-serif;font-size:13;font-weight:bold;" transform="matrix(1 0 0 1 263 1953)">Design Variations</text>
  <text style="stroke:none;fill:black;font-family:sans-serif;font-size:13;" transform="matrix(1 0 0 1 263 1971)">Symbols are supported in up to nine weights and three scales.</text>
  <text style="stroke:none;fill:black;font-family:sans-serif;font-size:13;" transform="matrix(1 0 0 1 263 1989)">For optimal layout with text and other symbols, vertically align</text>
  <text style="stroke:none;fill:black;font-family:sans-serif;font-size:13;" transform="matrix(1 0 0 1 263 2007)">symbols with the adjacent text.</text>
  <line style="fill:none;stroke:#00AEEF;stroke-width:0.5;opacity:1.0;" x1="776" x2="776" y1="1919" y2="1933"/>
  <g transform="matrix(1 0 0 1 776 1933)">
   <path d="M3.31055 0.15625C3.82812 0.15625 4.08203-0.0390625 4.26758-0.585938L5.52734-4.0332L11.2891-4.0332L12.5488-0.585938C12.7344-0.0390625 12.9883 0.15625 13.4961 0.15625C14.0137 0.15625 14.3457-0.15625 14.3457-0.644531C14.3457-0.810547 14.3164-0.966797 14.2383-1.17188L9.6582-13.3691C9.43359-13.9648 9.0332-14.2676 8.4082-14.2676C7.80273-14.2676 7.39258-13.9746 7.17773-13.3789L2.59766-1.16211C2.51953-0.957031 2.49023-0.800781 2.49023-0.634766C2.49023-0.146484 2.80273 0.15625 3.31055 0.15625ZM6.00586-5.51758L8.37891-12.0898L8.42773-12.0898L10.8008-5.51758Z"/>
  </g>
  <line style="fill:none;stroke:#00AEEF;stroke-width:0.5;opacity:1.0;" x1="793.197" x2="793.197" y1="1919" y2="1933"/>
  <text style="stroke:none;fill:black;font-family:sans-serif;font-size:13;font-weight:bold;" transform="matrix(1 0 0 1 776 1953)">Margins</text>
  <text style="stroke:none;fill:black;font-family:sans-serif;font-size:13;" transform="matrix(1 0 0 1 776 1971)">Leading and trailing margins on the left and right side of each symbol</text>
  <text style="stroke:none;fill:black;font-family:sans-serif;font-size:13;" transform="matrix(1 0 0 1 776 1989)">can be adjusted by modifying the x-location of the margin guidelines.</text>
  <text style="stroke:none;fill:black;font-family:sans-serif;font-size:13;" transform="matrix(1 0 0 1 776 2007)">Modifications are automatically applied proportionally to all</text>
  <text style="stroke:none;fill:black;font-family:sans-serif;font-size:13;" transform="matrix(1 0 0 1 776 2025)">scales and weights.</text>
  <g transform="matrix(1 0 0 1 1289 1933)">
   <path d="M2.8418 1.86523L4.54102 3.57422C5.40039 4.44336 6.38672 4.38477 7.31445 3.35938L18.0078-8.42773L17.041-9.4043L6.42578 2.27539C6.07422 2.67578 5.74219 2.77344 5.27344 2.30469L4.10156 1.14258C3.63281 0.683594 3.74023 0.341797 4.14062-0.0195312L15.6152-10.8203L14.6387-11.7871L3.04688-0.898438C2.06055 0.0195312 1.98242 0.996094 2.8418 1.86523ZM9.25781-16.3281C8.83789-15.918 8.80859-15.3418 9.04297-14.9512C9.27734-14.5898 9.73633-14.3555 10.3809-14.5215C11.8457-14.8633 13.3691-14.9219 14.7949-13.9844L14.209-12.5293C13.8672-11.6992 14.043-11.1133 14.5801-10.5664L16.875-8.25195C17.3633-7.76367 17.7734-7.74414 18.3398-7.8418L19.4043-8.03711L20.0684-7.36328L20.0293-6.80664C19.9902-6.30859 20.1172-5.92773 20.6055-5.44922L21.3672-4.70703C21.8457-4.22852 22.4609-4.19922 22.9297-4.66797L25.8398-7.58789C26.3086-8.05664 26.2891-8.65234 25.8105-9.13086L25.0391-9.89258C24.5605-10.3711 24.1895-10.5273 23.7109-10.4883L23.1348-10.4395L22.4902-11.0742L22.7344-12.1973C22.8613-12.7637 22.7051-13.2031 22.1191-13.7891L19.9219-15.9766C16.582-19.2969 12.1484-19.2188 9.25781-16.3281ZM10.752-15.957C13.1836-17.7344 16.4746-17.4316 18.7012-15.2051L21.1328-12.793C21.3672-12.5586 21.4062-12.373 21.3379-12.0312L21.0156-10.5469L22.5195-9.0625L23.5059-9.12109C23.7598-9.13086 23.8379-9.11133 24.0332-8.91602L24.6094-8.33984L22.168-5.89844L21.5918-6.47461C21.3965-6.66992 21.3672-6.74805 21.377-7.01172L21.4453-7.98828L19.9512-9.47266L18.4277-9.21875C18.1055-9.15039 17.959-9.17969 17.7148-9.41406L15.7129-11.416C15.459-11.6504 15.4297-11.8164 15.5859-12.1875L16.4648-14.2773C14.9023-15.7324 12.8711-16.3574 10.8398-15.7617C10.6836-15.7227 10.625-15.8496 10.752-15.957Z"/>
  </g>
  <text style="stroke:none;fill:black;font-family:sans-serif;font-size:13;font-weight:bold;" transform="matrix(1 0 0 1 1289 1953)">Exporting</text>
  <text style="stroke:none;fill:black;font-family:sans-serif;font-size:13;" transform="matrix(1 0 0 1 1289 1971)">Symbols should be outlined when exporting to ensure the</text>
  <text style="stroke:none;fill:black;font-family:sans-serif;font-size:13;" transform="matrix(1 0 0 1 1289 1989)">design is preserved when submitting to Xcode.</text>
  <text id="template-version" style="stroke:none;fill:black;font-family:sans-serif;font-size:13;text-anchor:end;" transform="matrix(1 0 0 1 3036 1933)">Template v.4.0</text>
  <text style="stroke:none;fill:black;font-family:sans-serif;font-size:13;text-anchor:end;" transform="matrix(1 0 0 1 3036 1951)">Requires Xcode 14 or greater</text>
  <text id="descriptive-name" style="stroke:none;fill:black;font-family:sans-serif;font-size:13;text-anchor:end;" transform="matrix(1 0 0 1 3036 1969)">Generated from bubble.left</text>
  <text style="stroke:none;fill:black;font-family:sans-serif;font-size:13;text-anchor:end;" transform="matrix(1 0 0 1 3036 1987)">Typeset at 100 points</text>
  <text style="stroke:none;fill:black;font-family:sans-serif;font-size:13;" transform="matrix(1 0 0 1 263 726)">Small</text>
  <text style="stroke:none;fill:black;font-family:sans-serif;font-size:13;" transform="matrix(1 0 0 1 263 1156)">Medium</text>
  <text style="stroke:none;fill:black;font-family:sans-serif;font-size:13;" transform="matrix(1 0 0 1 263 1586)">Large</text>
 </g>
 <g id="Guides">
  <g id="H-reference" style="fill:#27AAE1;stroke:none;" transform="matrix(1 0 0 1 339 696)">
   <path d="M0.993654 0L3.63775 0L29.3281-67.1323L30.0303-67.1323L30.0303-70.459L28.1226-70.459ZM11.6885-24.4799L46.9815-24.4799L46.2315-26.7285L12.4385-26.7285ZM55.1196 0L57.7637 0L30.6382-70.459L29.4326-70.459L29.4326-67.1323Z"/>
  </g>
  <line id="Baseline-S" style="fill:none;stroke:#27AAE1;opacity:1;stroke-width:0.5;" x1="263" x2="3036" y1="696" y2="696"/>
  <line id="Capline-S" style="fill:none;stroke:#27AAE1;opacity:1;stroke-width:0.5;" x1="263" x2="3036" y1="625.541" y2="625.541"/>
  <g id="H-reference" style="fill:#27AAE1;stroke:none;" transform="matrix(1 0 0 1 339 1126)">
   <path d="M0.993654 0L3.63775 0L29.3281-67.1323L30.0303-67.1323L30.0303-70.459L28.1226-70.459ZM11.6885-24.4799L46.9815-24.4799L46.2315-26.7285L12.4385-26.7285ZM55.1196 0L57.7637 0L30.6382-70.459L29.4326-70.459L29.4326-67.1323Z"/>
  </g>
  <line id="Baseline-M" style="fill:none;stroke:#27AAE1;opacity:1;stroke-width:0.5;" x1="263" x2="3036" y1="1126" y2="1126"/>
  <line id="Capline-M" style="fill:none;stroke:#27AAE1;opacity:1;stroke-width:0.5;" x1="263" x2="3036" y1="1055.54" y2="1055.54"/>
  <g id="H-reference" style="fill:#27AAE1;stroke:none;" transform="matrix(1 0 0 1 339 1556)">
   <path d="M0.993654 0L3.63775 0L29.3281-67.1323L30.0303-67.1323L30.0303-70.459L28.1226-70.459ZM11.6885-24.4799L46.9815-24.4799L46.2315-26.7285L12.4385-26.7285ZM55.1196 0L57.7637 0L30.6382-70.459L29.4326-70.459L29.4326-67.1323Z"/>
  </g>
  <line id="Baseline-L" style="fill:none;stroke:#27AAE1;opacity:1;stroke-width:0.5;" x1="263" x2="3036" y1="1556" y2="1556"/>
  <line id="Capline-L" style="fill:none;stroke:#27AAE1;opacity:1;stroke-width:0.5;" x1="263" x2="3036" y1="1485.54" y2="1485.54"/>
  <line id="left-margin-Regular-M" style="fill:none;stroke:#00AEEF;stroke-width:0.5;opacity:1.0;" x1="1383.59" x2="1383.59" y1="1030.79" y2="1150.12"/>
  <line id="right-margin-Regular-M" style="fill:none;stroke:#00AEEF;stroke-width:0.5;opacity:1.0;" x1="1516.1" x2="1516.1" y1="1030.79" y2="1150.12"/>
 </g>
 <g id="Symbols">
  <g id="Black-L" transform="matrix(1 0 0 1 2846.32 1556)">
   <path d="M59.4676 38.4136C64.4875 38.4136 68.6868 36.4078 74.8458 31.0561L95.8359 12.8031L125.865 12.8031C145.557 12.8031 158.07 0.204932 158.07-19.4018L158.07-70.1914C158.07-89.7981 145.557-102.396 125.865-102.396L48.2888-102.396C28.5965-102.396 16.084-89.8005 16.084-70.1914L16.084-19.4018C16.084 0.207325 29.7646 12.8031 46.5366 12.8031L47.5817 12.8031L47.5817 25.393C47.5817 33.5116 52.1211 38.4136 59.4676 38.4136ZM64.219 16.3772L64.219-0.620692C64.219-5.3943 61.7345-7.17794 57.6618-7.17794L49.8098-7.17794C40.6742-7.17794 36.065-11.7004 36.065-20.9227L36.065-68.6705C36.065-77.8732 40.6742-82.3944 49.8098-82.3944L124.344-82.3944C133.475-82.3944 138.089-77.8732 138.089-68.6705L138.089-20.9227C138.089-11.7004 133.475-7.17794 124.344-7.17794L94.1615-7.17794C89.2847-7.17794 87.2338-6.15134 83.6258-2.6221Z"/>
  </g>
  <g id="Heavy-L" transform="matrix(1 0 0 1 2550.05 1556)">
   <path d="M58.2021 37.2547C62.7267 37.2547 66.4104 35.361 71.934 30.535L93.1414 12.0206L125.92 12.0206C145.277 12.0206 157.195-0.0299295 157.195-19.2547L157.195-69.616C157.195-88.8407 145.277-100.891 125.92-100.891L47.3593-100.891C28.0025-100.891 16.084-88.852 16.084-69.616L16.084-19.2547C16.084-0.0187036 28.895 12.0206 46.0206 12.0206L47.5902 12.0206L47.5902 25.543C47.5902 32.8249 51.6145 37.2547 58.2021 37.2547ZM62.3981 17.8844L62.3981 0.575984C62.3981-3.83187 60.2147-5.4798 56.3424-5.4798L48.5307-5.4798C38.5565-5.4798 33.5844-10.4903 33.5844-20.4261L33.5844-68.4446C33.5844-78.3558 38.5565-83.3607 48.5307-83.3607L124.749-83.3607C134.7-83.3607 139.695-78.3558 139.695-68.4446L139.695-20.4261C139.695-10.4903 134.7-5.4798 124.749-5.4798L91.7902-5.4798C87.2896-5.4798 85.3187-4.57672 82.0206-1.32437Z"/>
  </g>
  <g id="Bold-L" transform="matrix(1 0 0 1 2253.95 1556)">
   <path d="M56.4706 35.7657C60.3582 35.7657 63.4115 34.0401 68.1066 29.9119L89.6052 11.0971L125.982 11.0971C144.759 11.0971 155.963-0.284626 155.963-18.884L155.963-69.0579C155.963-87.6573 144.759-99.0391 125.982-99.0391L46.0651-99.0391C27.2873-99.0391 16.084-87.6838 16.084-69.0579L16.084-18.884C16.084-0.258166 27.8714 11.0971 45.189 11.0971L47.4713 11.0971L47.4713 25.7349C47.4713 31.9497 50.8578 35.7657 56.4706 35.7657ZM59.9678 19.7069L59.9678 2.0217C59.9678-1.88064 58.1533-3.34465 54.6014-3.34465L46.8509-3.34465C35.9735-3.34465 30.5257-8.9547 30.5257-19.6698L30.5257-68.2722C30.5257-78.9625 35.9735-84.5593 46.8509-84.5593L125.196-84.5593C136.02-84.5593 141.521-78.9625 141.521-68.2722L141.521-19.6698C141.521-8.9547 136.02-3.34465 125.196-3.34465L88.6611-3.34465C84.659-3.34465 82.8177-2.58778 79.9039 0.303972Z"/>
  </g>
  <g id="Semibold-L" transform="matrix(1 0 0 1 1957.67 1556)">
   <path d="M55.2769 34.7392C58.7254 34.7392 61.3441 33.1295 65.468 29.4824L87.1674 10.4604L126.024 10.4604C144.403 10.4604 155.113-0.460212 155.113-18.6285L155.113-68.6732C155.113-86.8415 144.403-97.7622 126.024-97.7622L45.1729-97.7622C26.7942-97.7622 16.084-86.8785 16.084-68.6732L16.084-18.6285C16.084-0.423249 27.1657 10.4604 44.6157 10.4604L47.3894 10.4604L47.3894 25.8672C47.3894 31.3464 50.3362 34.7392 55.2769 34.7392ZM58.2923 20.9633L58.2923 3.01837C58.2923-0.535472 56.7322-1.87269 53.4012-1.87269L45.6928-1.87269C34.1927-1.87269 28.4171-7.89603 28.4171-19.1484L28.4171-68.1533C28.4171-79.3808 34.1927-85.3857 45.6928-85.3857L125.504-85.3857C136.93-85.3857 142.78-79.3808 142.78-68.1533L142.78-19.1484C142.78-7.89603 136.93-1.87269 125.504-1.87269L86.504-1.87269C82.8454-1.87269 81.0936-1.21661 78.4446 1.42654Z"/>
  </g>
  <g id="Medium-L" transform="matrix(1 0 0 1 1661.28 1556)">
   <path d="M54.3718 33.9608C57.4873 33.9608 59.7766 32.4391 63.4673 29.1566L85.319 9.97771L126.056 9.97771C144.132 9.97771 154.469-0.593349 154.469-18.4348L154.469-68.3815C154.469-86.2229 144.132-96.794 126.056-96.794L44.4964-96.794C26.4203-96.794 16.084-86.2678 16.084-68.3815L16.084-18.4348C16.084-0.548423 26.6306 9.97771 44.1811 9.97771L47.3272 9.97771L47.3272 25.9675C47.3272 30.8889 49.9406 33.9608 54.3718 33.9608ZM57.0219 21.9159L57.0219 3.77409C57.0219 0.484488 55.6546-0.756592 52.4912-0.756592L44.8147-0.756592C32.8425-0.756592 26.8183-7.09331 26.8183-18.753L26.8183-68.0632C26.8183-79.698 32.8425-86.0122 44.8147-86.0122L125.738-86.0122C137.62-86.0122 143.735-79.698 143.735-68.0632L143.735-18.753C143.735-7.09331 137.62-0.756592 125.738-0.756592L84.8683-0.756592C81.4703-0.756592 79.7863-0.176937 77.3381 2.27773Z"/>
  </g>
  <g id="Regular-L" transform="matrix(1 0 0 1 1364.99 1556)">
   <path d="M53.1913 32.9456C55.8724 32.9456 57.7319 31.5385 60.8577 28.7318L82.908 9.34805L126.098 9.34805C143.78 9.34805 153.629-0.767006 153.629-18.182L153.629-68.001C153.629-85.416 143.78-95.5311 126.098-95.5311L43.6141-95.5311C25.9327-95.5311 16.084-85.4713 16.084-68.001L16.084-18.182C16.084-0.711692 25.9327 9.34805 43.6141 9.34805L47.2461 9.34805L47.2461 26.0983C47.2461 30.2921 49.4247 32.9456 53.1913 32.9456ZM55.3648 23.1585L55.3648 4.75981C55.3648 1.81487 54.2491 0.699192 51.3042 0.699192L43.6694 0.699192C31.0813 0.699192 24.7328-6.04628 24.7328-18.2373L24.7328-67.9457C24.7328-80.1117 31.0813-86.8295 43.6694-86.8295L126.043-86.8295C138.521-86.8295 144.98-80.1117 144.98-67.9457L144.98-18.2373C144.98-6.04628 138.521 0.699192 126.043 0.699192L82.7348 0.699192C79.6767 0.699192 78.0811 1.17916 75.8948 3.38796Z"/>
  </g>
  <g id="Light-L" transform="matrix(1 0 0 1 1069.18 1556)">
   <path d="M50.9392 31.5715C53.0287 31.5715 54.5065 30.4697 56.7925 28.4455L79.1864 9.00452L126.098 9.00452C142.329 9.00452 151.815-0.70975 151.815-16.7125L151.815-68.6117C151.815-84.6145 142.329-94.3287 126.098-94.3287L41.801-94.3287C25.5701-94.3287 16.084-84.7079 16.084-68.6117L16.084-16.7125C16.084-0.616266 25.5701 9.00452 41.801 9.00452L46.33 9.00452L46.33 26.2701C46.33 29.5287 48.0697 31.5715 50.9392 31.5715ZM52.5593 24.1319L52.5593 5.52322C52.5593 3.26535 51.6726 2.3787 49.4147 2.3787L41.8945 2.3787C29.5545 2.3787 22.7098-4.74848 22.7098-16.806L22.7098-68.5182C22.7098-80.5888 29.5545-87.6692 41.8945-87.6692L126.005-87.6692C138.158-87.6692 145.19-80.5888 145.19-68.5182L145.19-16.806C145.19-4.74848 138.158 2.3787 126.005 2.3787L79.3376 2.3787C76.833 2.3787 75.5236 2.80141 73.6046 4.64759Z"/>
  </g>
  <g id="Thin-L" transform="matrix(1 0 0 1 773.672 1556)">
   <path d="M47.9607 29.7541C49.2677 29.7541 50.2406 29.0561 51.416 28.0669L74.2642 8.55017L126.098 8.55017C140.411 8.55017 149.417-0.634024 149.417-14.7688L149.417-69.4195C149.417-83.5543 140.411-92.7385 126.098-92.7385L39.403-92.7385C25.0905-92.7385 16.084-83.6983 16.084-69.4195L16.084-14.7688C16.084-0.490057 25.0905 8.55017 39.403 8.55017L45.1184 8.55017L45.1184 26.4973C45.1184 28.5191 46.2775 29.7541 47.9607 29.7541ZM48.8487 25.4192L48.8487 6.53289C48.8487 5.18373 48.265 4.59998 46.9158 4.59998L39.547 4.59998C27.5351 4.59998 20.0342-3.03203 20.0342-14.9128L20.0342-69.2755C20.0342-81.2198 27.5351-88.7799 39.547-88.7799L125.954-88.7799C137.678-88.7799 145.467-81.2198 145.467-69.2755L145.467-14.9128C145.467-3.03203 137.678 4.59998 125.954 4.59998L74.8446 4.59998C73.072 4.59998 72.1412 4.94696 70.5756 6.31355Z"/>
  </g>
  <g id="Ultralight-L" transform="matrix(1 0 0 1 477.575 1556)">
   <path d="M46.4351 28.8232C47.3413 28.8232 48.0556 28.3321 48.6622 27.873L71.7431 8.31745L126.098 8.31745C139.428 8.31745 148.189-0.595238 148.189-13.7733L148.189-69.8332C148.189-83.0113 139.428-91.924 126.098-91.924L38.1748-91.924C24.8448-91.924 16.084-83.1811 16.084-69.8332L16.084-13.7733C16.084-0.425413 24.8448 8.31745 38.1748 8.31745L44.4978 8.31745L44.4978 26.6137C44.4978 28.0019 45.3595 28.8232 46.4351 28.8232ZM46.9482 26.0786L46.9482 7.05004C46.9482 6.16631 46.5196 5.73771 45.6358 5.73771L38.3446 5.73771C26.5008 5.73771 18.6637-2.15288 18.6637-13.9432L18.6637-69.6634C18.6637-81.5431 26.5008-89.3487 38.3446-89.3487L125.929-89.3487C137.433-89.3487 145.609-81.5431 145.609-69.6634L145.609-13.9432C145.609-2.15288 137.433 5.73771 125.929 5.73771L72.5433 5.73771C71.1456 5.73771 70.4088 6.04591 69.0241 7.16685Z"/>
  </g>
  <g id="Black-M" transform="matrix(1 0 0 1 2865.68 1126)">
   <path d="M46.8545 22.6346C51.0892 22.6346 54.734 21.0258 59.938 16.5338L76.0596 2.60929L97.4654 2.60929C112.814 2.60929 122.969-7.56735 122.969-22.8944L122.969-62.8933C122.969-78.2203 112.814-88.397 97.4654-88.397L37.9647-88.397C22.6162-88.397 12.4609-78.2198 12.4609-62.8933L12.4609-22.8944C12.4609-7.56792 23.7581 2.60929 36.2518 2.60929L36.7321 2.60929L36.7321 11.6316C36.7321 18.5138 40.6321 22.6346 46.8545 22.6346ZM50.938 3.58898L50.938-9.34163C50.938-13.2612 48.7853-14.7287 45.5509-14.7287L39.4486-14.7287C33.1251-14.7287 29.7989-17.8647 29.7989-24.3784L29.7989-61.4093C29.7989-67.9172 33.1251-71.0535 39.4486-71.0535L95.9814-71.0535C102.306-71.0535 105.631-67.9172 105.631-61.4093L105.631-24.3784C105.631-17.8647 102.306-14.7287 95.9814-14.7287L74.5286-14.7287C70.502-14.7287 68.883-13.8349 65.8576-10.9118Z"/>
  </g>
  <g id="Heavy-M" transform="matrix(1 0 0 1 2569.32 1126)">
   <path d="M45.8252 21.6286C49.6302 21.6286 52.8062 20.1011 57.4665 16.0508L73.7688 1.87606L97.5193 1.87606C112.673 1.87606 122.282-7.80223 122.282-22.8862L122.282-62.2744C122.282-77.3583 112.673-87.0366 97.5193-87.0366L37.2232-87.0366C22.069-87.0366 12.4609-77.3629 12.4609-62.2744L12.4609-22.8862C12.4609-7.79768 22.9415 1.87606 35.9145 1.87606L36.8249 1.87606L36.8249 11.7624C36.8249 17.913 40.262 21.6286 45.8252 21.6286ZM49.4168 4.97253L49.4168-8.24222C49.4168-11.8676 47.5374-13.2235 44.4354-13.2235L38.3619-13.2235C31.1958-13.2235 27.5605-16.8015 27.5605-24.0249L27.5605-61.1357C27.5605-68.345 31.1958-71.9206 38.3619-71.9206L96.3806-71.9206C103.538-71.9206 107.182-68.345 107.182-61.1357L107.182-24.0249C107.182-16.8015 103.538-13.2235 96.3806-13.2235L72.5239-13.2235C68.814-13.2235 67.2469-12.4453 64.4997-9.75941Z"/>
  </g>
  <g id="Bold-M" transform="matrix(1 0 0 1 2272.99 1126)">
   <path d="M44.6737 20.5031C47.9982 20.5031 50.6496 19.0666 54.7017 15.5105L71.2063 1.05583L97.5796 1.05583C112.516 1.05583 121.512-8.06497 121.512-22.877L121.512-61.5821C121.512-76.3941 112.516-85.5149 97.5796-85.5149L36.3937-85.5149C21.457-85.5149 12.4609-76.4044 12.4609-61.5821L12.4609-22.877C12.4609-8.0547 22.0279 1.05583 35.5373 1.05583L36.9288 1.05583L36.9288 11.9087C36.9288 17.2409 39.8479 20.5031 44.6737 20.5031ZM47.7151 6.52023L47.7151-7.01238C47.7151-10.3087 46.1413-11.5399 43.1876-11.5399L37.1463-11.5399C29.0376-11.5399 25.0566-15.6121 25.0566-23.6295L25.0566-60.8296C25.0566-68.8235 29.0376-72.8906 37.1463-72.8906L96.827-72.8906C104.915-72.8906 108.917-68.8235 108.917-60.8296L108.917-23.6295C108.917-15.6121 104.915-11.5399 96.827-11.5399L70.2813-11.5399C66.9257-11.5399 65.4165-10.8908 62.9808-8.47027Z"/>
  </g>
  <g id="Semibold-M" transform="matrix(1 0 0 1 1976.55 1126)">
   <path d="M43.8799 19.7273C46.8731 19.7273 49.1629 18.3535 52.7958 15.138L69.4398 0.49037L97.6211 0.49037C112.408 0.49037 120.982-8.2461 120.982-22.8706L120.982-61.1048C120.982-75.7294 112.408-84.4658 97.6211-84.4658L35.8219-84.4658C21.035-84.4658 12.4609-75.7436 12.4609-61.1048L12.4609-22.8706C12.4609-8.23189 21.3982 0.49037 35.2772 0.49037L37.0004 0.49037L37.0004 12.0096C37.0004 16.7775 39.5624 19.7273 43.8799 19.7273ZM46.5419 7.58721L46.5419-6.16454C46.5419-9.23401 45.1789-10.3792 42.3273-10.3792L36.3082-10.3792C27.5497-10.3792 23.3305-14.7922 23.3305-23.3569L23.3305-60.6185C23.3305-69.1533 27.5497-73.5593 36.3082-73.5593L97.1348-73.5593C105.865-73.5593 110.113-69.1533 110.113-60.6185L110.113-23.3569C110.113-14.7922 105.865-10.3792 97.1348-10.3792L68.7353-10.3792C65.6239-10.3792 64.1547-9.81909 61.9336-7.58155Z"/>
  </g>
  <g id="Medium-M" transform="matrix(1 0 0 1 1680.04 1126)">
   <path d="M43.278 19.139C46.02 19.139 48.0357 17.8128 51.3506 14.8555L68.1003 0.0616135L97.6526 0.0616135C112.326 0.0616135 120.58-8.38344 120.58-22.8658L120.58-60.743C120.58-75.2253 112.326-83.6704 97.6526-83.6704L35.3884-83.6704C20.7151-83.6704 12.4609-75.2425 12.4609-60.743L12.4609-22.8658C12.4609-8.36624 20.9206 0.0616135 35.0801 0.0616135L37.0548 0.0616135L37.0548 12.0861C37.0548 16.4262 39.3459 19.139 43.278 19.139ZM45.6524 8.39623L45.6524-5.52166C45.6524-8.41912 44.4491-9.49906 41.675-9.49906L35.6728-9.49906C26.4216-9.49906 22.0216-14.1705 22.0216-23.1502L22.0216-60.4585C22.0216-69.4035 26.4216-74.0663 35.6728-74.0663L97.3682-74.0663C106.585-74.0663 111.019-69.4035 111.019-60.4585L111.019-23.1502C111.019-14.1705 106.585-9.49906 97.3682-9.49906L67.563-9.49906C64.6369-9.49906 63.198-9.00651 61.1396-6.90768Z"/>
  </g>
  <g id="Regular-M" transform="matrix(1 0 0 1 1383.59 1126)">
   <path d="M42.4929 18.3717C44.9072 18.3717 46.5653 17.1075 49.4655 14.4871L66.3531-0.497634L97.6938-0.497634C112.219-0.497634 120.056-8.56259 120.056-22.8595L120.056-60.2709C120.056-74.5679 112.219-82.6328 97.6938-82.6328L34.8228-82.6328C20.2978-82.6328 12.4609-74.589 12.4609-60.2709L12.4609-22.8595C12.4609-8.54148 20.2978-0.497634 34.8228-0.497634L37.1256-0.497634L37.1256 12.1859C37.1256 15.9679 39.0636 18.3717 42.4929 18.3717ZM44.4922 9.45148L44.4922-4.68313C44.4922-7.35623 43.4973-8.3511 40.8242-8.3511L34.8439-8.3511C24.9501-8.3511 20.3144-13.3596 20.3144-22.8806L20.3144-60.2498C20.3144-69.7297 24.9501-74.7276 34.8439-74.7276L97.6726-74.7276C107.524-74.7276 112.202-69.7297 112.202-60.2498L112.202-22.8806C112.202-13.3596 107.524-8.3511 97.6726-8.3511L66.034-8.3511C63.3494-8.3511 61.95-7.94662 60.104-6.02873Z"/>
  </g>
  <g id="Light-M" transform="matrix(1 0 0 1 1087.69 1126)">
   <path d="M40.4738 17.1397C42.3577 17.1397 43.6736 16.1493 45.8209 14.2305L63.0165-0.80563L97.6938-0.80563C110.918-0.80563 118.43-8.51125 118.43-21.542L118.43-60.8185C118.43-73.8492 110.918-81.5549 97.6938-81.5549L33.1973-81.5549C19.9727-81.5549 12.4609-73.9046 12.4609-60.8185L12.4609-21.542C12.4609-8.45593 19.9727-0.80563 33.1973-0.80563L36.3043-0.80563L36.3043 12.3399C36.3043 15.2835 37.8487 17.1397 40.4738 17.1397ZM41.9769 10.3241L41.9769-3.9987C41.9769-6.0558 41.1873-6.84534 39.1302-6.84534L33.2526-6.84534C23.5812-6.84534 18.5006-12.196 18.5006-21.5973L18.5006-60.7632C18.5006-70.1575 23.5812-75.4805 33.2526-75.4805L97.6384-75.4805C107.199-75.4805 112.39-70.1575 112.39-60.7632L112.39-21.5973C112.39-12.196 107.199-6.84534 97.6384-6.84534L62.9883-6.84534C60.7998-6.84534 59.6572-6.49219 58.0507-4.89941Z"/>
  </g>
  <g id="Thin-M" transform="matrix(1 0 0 1 792.052 1126)">
   <path d="M37.8034 15.5103C38.9857 15.5103 39.849 14.882 41.0006 13.891L58.6035-1.21298L97.6938-1.21298C109.198-1.21298 116.28-8.44336 116.28-19.7994L116.28-61.5427C116.28-72.8987 109.198-80.1291 97.6938-80.1291L31.0474-80.1291C19.5427-80.1291 12.4609-72.9993 12.4609-61.5427L12.4609-19.7994C12.4609-8.34278 19.5427-1.21298 31.0474-1.21298L35.218-1.21298L35.218 12.5436C35.218 14.3782 36.2419 15.5103 37.8034 15.5103ZM38.6502 11.4783L38.6502-3.09347C38.6502-4.33587 38.1322-4.85384 36.8898-4.85384L31.148-4.85384C21.7707-4.85384 16.1018-10.6572 16.1018-19.9L16.1018-61.4421C16.1018-70.7232 21.7707-76.4763 31.148-76.4763L97.5932-76.4763C106.769-76.4763 112.639-70.7232 112.639-61.4421L112.639-19.9C112.639-10.6572 106.769-4.85384 97.5932-4.85384L58.96-4.85384C57.4279-4.85384 56.6247-4.56859 55.335-3.40579Z"/>
  </g>
  <g id="Ultralight-M" transform="matrix(1 0 0 1 495.891 1126)">
   <path d="M36.4356 14.6757C37.2586 14.6757 37.8901 14.2328 38.5316 13.7172L56.3432-1.42162L97.6938-1.42162C108.318-1.42162 115.179-8.40859 115.179-18.9069L115.179-61.9136C115.179-72.4119 108.318-79.3989 97.6938-79.3989L29.9462-79.3989C19.3224-79.3989 12.4609-72.5357 12.4609-61.9136L12.4609-18.9069C12.4609-8.28482 19.3224-1.42162 29.9462-1.42162L34.6616-1.42162L34.6616 12.6479C34.6616 13.9146 35.4189 14.6757 36.4356 14.6757ZM36.9462 12.0695L36.9462-2.62982C36.9462-3.45493 36.5674-3.83381 35.7422-3.83381L30.07-3.83381C20.8434-3.83381 14.8731-9.86895 14.8731-19.0307L14.8731-61.7898C14.8731-71.013 20.8434-76.9863 30.07-76.9863L97.57-76.9863C106.549-76.9863 112.767-71.013 112.767-61.7898L112.767-19.0307C112.767-9.86895 106.549-3.83381 97.57-3.83381L56.8968-3.83381C55.7008-3.83381 55.0714-3.58333 53.9441-2.64076Z"/>
  </g>
  <g id="Black-S" transform="matrix(1 0 0 1 2880.28 696)">
   <path d="M36.9141 10.3516C40.332 10.3516 43.3105 9.08203 47.5098 5.46875L60.1074-5.37109L76.3672-5.37109C88.3789-5.37109 96.4844-13.4766 96.4844-25.4883L96.4844-57.1289C96.4844-69.1406 88.3789-77.2461 76.3672-77.2461L29.8828-77.2461C17.8711-77.2461 9.76562-69.1406 9.76562-57.1289L9.76562-25.4883C9.76562-13.4766 18.8477-5.37109 28.418-5.37109L28.7109-5.37109L28.7109 1.46484C28.7109 7.03125 31.8848 10.3516 36.9141 10.3516ZM40.2344-5.17578L40.2344-15.2344C40.2344-18.3594 38.4766-19.5312 35.9375-19.5312L31.1523-19.5312C26.4648-19.5312 23.9258-21.875 23.9258-26.7578L23.9258-55.8594C23.9258-60.7422 26.4648-63.0859 31.1523-63.0859L75.0977-63.0859C79.7852-63.0859 82.3242-60.7422 82.3242-55.8594L82.3242-26.7578C82.3242-21.875 79.7852-19.5312 75.0977-19.5312L58.8379-19.5312C55.6152-19.5312 54.3457-18.7988 51.9043-16.4551Z"/>
  </g>
  <g id="Heavy-S" transform="matrix(1 0 0 1 2583.75 696)">
   <path d="M36.2917 9.64857C39.4101 9.64857 42.0313 8.41361 45.8618 5.08844L58.5747-5.95884L76.4133-5.95884C88.425-5.95884 96.1041-13.684 96.1041-25.6496L96.1041-56.5296C96.1041-68.4953 88.425-76.2204 76.4133-76.2204L29.4564-76.2204C17.4447-76.2204 9.76562-68.4953 9.76562-56.5296L9.76562-25.6496C9.76562-13.684 18.1908-5.95884 28.3373-5.95884L28.8953-5.95884L28.8953 1.55704C28.8953 6.60484 31.7234 9.64857 36.2917 9.64857ZM39.2548-4.10401L39.2548-14.3816C39.2548-17.3337 37.7044-18.4364 35.1999-18.4364L30.4263-18.4364C24.9897-18.4364 22.2432-21.1144 22.2432-26.6195L22.2432-55.5597C22.2432-61.0533 24.9897-63.7313 30.4263-63.7313L75.4434-63.7313C80.88-63.7313 83.6265-61.0533 83.6265-55.5597L83.6265-26.6195C83.6265-21.1144 80.88-18.4364 75.4434-18.4364L57.5126-18.4364C54.4974-18.4364 53.2394-17.7962 51.0054-15.6138Z"/>
  </g>
  <g id="Bold-S" transform="matrix(1 0 0 1 2287.26 696)">
   <path d="M35.5957 8.8623C38.3789 8.8623 40.6006 7.66602 44.0186 4.66309L56.8604-6.61621L76.4648-6.61621C88.4766-6.61621 95.6787-13.916 95.6787-25.8301L95.6787-55.8594C95.6787-67.7734 88.4766-75.0732 76.4648-75.0732L28.9795-75.0732C16.9678-75.0732 9.76562-67.7734 9.76562-55.8594L9.76562-25.8301C9.76562-13.916 17.4561-6.61621 28.2471-6.61621L29.1016-6.61621L29.1016 1.66016C29.1016 6.12793 31.543 8.8623 35.5957 8.8623ZM38.1592-2.90527L38.1592-13.4277C38.1592-16.1865 36.8408-17.2119 34.375-17.2119L29.6143-17.2119C23.3398-17.2119 20.3613-20.2637 20.3613-26.4648L20.3613-55.2246C20.3613-61.4014 23.3398-64.4531 29.6143-64.4531L75.8301-64.4531C82.1045-64.4531 85.083-61.4014 85.083-55.2246L85.083-26.4648C85.083-20.2637 82.1045-17.2119 75.8301-17.2119L56.0303-17.2119C53.2471-17.2119 52.002-16.6748 50-14.6729Z"/>
  </g>
  <g id="Semibold-S" transform="matrix(1 0 0 1 1990.69 696)">
   <path d="M35.1158 8.32021C37.668 8.32021 39.6142 7.15059 42.7478 4.36982L55.6784-7.06943L76.5004-7.06943C88.5121-7.06943 95.3854-14.076 95.3854-25.9545L95.3854-55.3973C95.3854-67.2758 88.5121-74.2823 76.5004-74.2823L28.6507-74.2823C16.639-74.2823 9.76562-67.2758 9.76562-55.3973L9.76562-25.9545C9.76562-14.076 16.9495-7.06943 28.1849-7.06943L29.2437-7.06943L29.2437 1.73125C29.2437 5.79912 31.4186 8.32021 35.1158 8.32021ZM37.4038-2.07881L37.4038-12.7701C37.4038-15.3956 36.2454-16.3677 33.8062-16.3677L29.0544-16.3677C22.2023-16.3677 19.0639-19.6771 19.0639-26.3582L19.0639-54.9936C19.0639-61.6413 22.2023-64.9508 29.0544-64.9508L76.0967-64.9508C82.9487-64.9508 86.0872-61.6413 86.0872-54.9936L86.0872-26.3582C86.0872-19.6771 82.9487-16.3677 76.0967-16.3677L55.0083-16.3677C52.3851-16.3677 51.1488-15.9017 49.3068-14.0241Z"/>
  </g>
  <g id="Medium-S" transform="matrix(1 0 0 1 1694.09 696)">
   <path d="M34.752 7.90918C37.1289 7.90918 38.8662 6.75977 41.7842 4.14746L54.7822-7.41309L76.5273-7.41309C88.5391-7.41309 95.1631-14.1973 95.1631-26.0488L95.1631-55.0469C95.1631-66.8984 88.5391-73.6826 76.5273-73.6826L28.4014-73.6826C16.3896-73.6826 9.76562-66.8984 9.76562-55.0469L9.76562-26.0488C9.76562-14.1973 16.5654-7.41309 28.1377-7.41309L29.3516-7.41309L29.3516 1.78516C29.3516 5.5498 31.3242 7.90918 34.752 7.90918ZM36.8311-1.45215L36.8311-12.2715C36.8311-14.7959 35.7939-15.7275 33.375-15.7275L28.6299-15.7275C21.3398-15.7275 18.0801-19.2324 18.0801-26.2773L18.0801-54.8184C18.0801-61.8232 21.3398-65.3281 28.6299-65.3281L76.2988-65.3281C83.5889-65.3281 86.8486-61.8232 86.8486-54.8184L86.8486-26.2773C86.8486-19.2324 83.5889-15.7275 76.2988-15.7275L54.2334-15.7275C51.7314-15.7275 50.502-15.3154 48.7812-13.5322Z"/>
  </g>
  <g id="Regular-S" transform="matrix(1 0 0 1 1397.53 696)">
   <path d="M34.2773 7.37305C36.4258 7.37305 37.8906 6.25 40.5273 3.85742L53.6133-7.86133L76.5625-7.86133C88.5742-7.86133 94.873-14.3555 94.873-26.1719L94.873-54.5898C94.873-66.4062 88.5742-72.9004 76.5625-72.9004L28.0762-72.9004C16.0645-72.9004 9.76562-66.4062 9.76562-54.5898L9.76562-26.1719C9.76562-14.3555 16.0645-7.86133 28.0762-7.86133L29.4922-7.86133L29.4922 1.85547C29.4922 5.22461 31.2012 7.37305 34.2773 7.37305ZM36.084-0.634766L36.084-11.6211C36.084-14.0137 35.2051-14.8926 32.8125-14.8926L28.0762-14.8926C20.2148-14.8926 16.7969-18.6523 16.7969-26.1719L16.7969-54.5898C16.7969-62.0605 20.2148-65.8203 28.0762-65.8203L76.5625-65.8203C84.4238-65.8203 87.8418-62.0605 87.8418-54.5898L87.8418-26.1719C87.8418-18.6523 84.4238-14.8926 76.5625-14.8926L53.2227-14.8926C50.8789-14.8926 49.6582-14.5508 48.0957-12.8906Z"/>
  </g>
  <g id="Light-S" transform="matrix(1 0 0 1 1101.53 696)">
   <path d="M32.4912 6.28321C34.1704 6.28321 35.3325 5.40235 37.3032 3.63037L50.6616-8.13379L76.5625-8.13379C87.4238-8.13379 93.4351-14.3101 93.4351-25.0064L93.4351-55.0742C93.4351-65.7705 87.4238-71.9468 76.5625-71.9468L26.6382-71.9468C15.7769-71.9468 9.76562-65.8008 9.76562-55.0742L9.76562-25.0064C9.76562-14.2798 15.7769-8.13379 26.6382-8.13379L28.7656-8.13379L28.7656 1.9917C28.7656 4.61915 30.1265 6.28321 32.4912 6.28321ZM33.8589 0.137201L33.8589-11.0156C33.8589-12.8633 33.1616-13.5606 31.314-13.5606L26.6685-13.5606C19.0039-13.5606 15.1924-17.6231 15.1924-25.0366L15.1924-55.0439C15.1924-62.439 19.0039-66.4863 26.6685-66.4863L76.5322-66.4863C84.1362-66.4863 88.0083-62.439 88.0083-55.0439L88.0083-25.0366C88.0083-17.6231 84.1362-13.5606 76.5322-13.5606L50.5283-13.5606C48.6236-13.5606 47.6299-13.2642 46.2793-11.8916Z"/>
  </g>
  <g id="Thin-S" transform="matrix(1 0 0 1 805.773 696)">
   <path d="M30.1289 4.84182C31.1875 4.84182 31.9493 4.28127 33.0391 3.33008L46.7579-8.49414L76.5625-8.49414C85.9024-8.49414 91.5332-14.25 91.5332-23.4649L91.5332-55.7148C91.5332-64.9297 85.9024-70.6856 76.5625-70.6856L24.7364-70.6856C15.3965-70.6856 9.76562-65 9.76562-55.7148L9.76562-23.4649C9.76562-14.1797 15.3965-8.49414 24.7364-8.49414L27.8047-8.49414L27.8047 2.17187C27.8047 3.81837 28.7051 4.84182 30.1289 4.84182ZM30.9161 1.15819L30.9161-10.2149C30.9161-11.3418 30.459-11.7989 29.3321-11.7989L24.8067-11.7989C17.4024-11.7989 13.0703-16.2617 13.0703-23.5352L13.0703-55.6445C13.0703-62.9394 17.4024-67.3672 24.8067-67.3672L76.4922-67.3672C83.7559-67.3672 88.2285-62.9394 88.2285-55.6445L88.2285-23.5352C88.2285-16.2617 83.7559-11.7989 76.4922-11.7989L46.9649-11.7989C45.6407-11.7989 44.9473-11.5625 43.877-10.5703Z"/>
  </g>
  <g id="Ultralight-S" transform="matrix(1 0 0 1 509.549 696)">
   <path d="M28.919 4.10354C29.6597 4.10354 30.2164 3.70705 30.8551 3.17627L44.7584-8.6787L76.5625-8.6787C85.1231-8.6787 90.5591-14.2192 90.5591-22.6753L90.5591-56.043C90.5591-64.499 85.1231-70.0396 76.5625-70.0396L23.7622-70.0396C15.2017-70.0396 9.76562-64.5899 9.76562-56.043L9.76562-22.6753C9.76562-14.1284 15.2017-8.6787 23.7622-8.6787L27.3125-8.6787L27.3125 2.26416C27.3125 3.40822 27.9771 4.10354 28.919 4.10354ZM29.4087 1.68113L29.4087-9.8047C29.4087-10.5625 29.0748-10.8965 28.3169-10.8965L23.8531-10.8965C16.5821-10.8965 11.9834-15.5645 11.9834-22.7661L11.9834-55.9521C11.9834-63.1958 16.5821-67.8183 23.8531-67.8183L76.4717-67.8183C83.561-67.8183 88.3413-63.1958 88.3413-55.9521L88.3413-22.7661C88.3413-15.5645 83.561-10.8965 76.4717-10.8965L45.1397-10.8965C44.1128-10.8965 43.5733-10.6909 42.6465-9.89358Z"/>
  </g>
 </g>
</svg>
